<svg width="150" height="125" viewBox="0 0 150 125" fill="none" xmlns="http://www.w3.org/2000/svg">
<path d="M22.2223 119.192V0H127.721V119.192C91.3579 127.048 61.7284 126.823 22.2223 119.192Z" fill="#E3E3E3"/>
<path d="M128.17 110.886V3.36676H149.943V105.05L128.17 110.886Z" fill="#C9C9C9"/>
<path d="M21.7732 110.886V3.36676H-3.43323e-05V105.05L21.7732 110.886Z" fill="#C9C9C9"/>
<rect x="96.5213" y="66.2174" width="14.1414" height="9.42761" rx="4.7138" fill="#5F90BD"/>
<rect x="76.7676" y="66.2174" width="14.1414" height="9.42761" rx="4.7138" fill="#5F90BD"/>
<rect x="57.0143" y="66.2174" width="14.1414" height="9.42761" rx="4.7138" fill="#5F90BD"/>
<rect x="37.2609" y="66.2182" width="14.1414" height="9.42761" rx="4.7138" fill="#5F90BD"/>
<rect x="96.5213" y="78.7873" width="14.1414" height="9.42761" rx="4.7138" fill="#CE8D52"/>
<rect x="76.7676" y="78.7873" width="14.1414" height="9.42761" rx="4.7138" fill="#808080"/>
<rect x="57.0143" y="78.7873" width="14.1414" height="9.42761" rx="4.7138" fill="#808080"/>
<rect x="37.2609" y="78.7867" width="14.1414" height="9.42761" rx="4.7138" fill="#808080"/>
<rect x="96.5213" y="91.3568" width="14.1414" height="9.42761" rx="4.7138" fill="#6FAE7D"/>
<rect x="76.7676" y="91.3568" width="14.1414" height="9.42761" rx="4.7138" fill="#808080"/>
<rect x="57.0143" y="91.3568" width="14.1414" height="9.42761" rx="4.7138" fill="#808080"/>
<rect x="37.2609" y="91.3573" width="14.1414" height="9.42761" rx="4.7138" fill="#808080"/>
<rect x="96.5213" y="103.928" width="14.1414" height="9.42761" rx="4.7138" fill="#808080"/>
<rect x="76.7676" y="103.928" width="14.1414" height="9.42761" rx="4.7138" fill="#808080"/>
<rect x="57.0143" y="103.928" width="14.1414" height="9.42761" rx="4.7138" fill="#808080"/>
<rect x="37.2609" y="103.929" width="14.1414" height="9.42761" rx="4.7138" fill="#808080"/>
<rect x="24.4664" y="3.36676" width="100.786" height="57.2389" fill="black"/>
<rect x="35.242" y="10.1009" width="79.4612" height="43.5464" fill="#FFEDAE"/>
</svg>
